<?xml version="1.0" encoding="UTF-8"?>
<svg width="256" height="256" version="1.1" viewBox="0 0 256 256" xmlns="http://www.w3.org/2000/svg">
 <rect width="256" height="256" rx="32" fill="#6f42c1"/>
 <g fill="#fff" aria-label="J.">
  <path d="m87.016 202.3q-13.234 0-24.062-5.25-10.719-5.25-17.281-15.859-6.4531-10.609-7.1094-26.578l0.21875-0.65625h20.672q0.4375 16.078 7.3281 23.625 7 7.5469 19.906 7.5469 9.0781 0 14.875-3.8281 5.7969-3.9375 8.5312-10.719 2.8438-6.8906 2.8438-15.75v-97.125l-21.219-2.8438v-14.109h60.594v13.891l-17.828 3.0625v97.125q0 14.219-5.4688 24.938-5.3594 10.719-15.969 16.625-10.5 5.9062-26.031 5.9062z"/>
  <path d="m175.72 200v-22.094h21.547v22.094z"/>
 </g>
</svg>
